# xmcd CD database file
#
# Track frame offsets:
#	150
#	16813
#	32552
#	47866
#	64479
#	76529
#	93943
#	110344
#	124619
#	153882
#	168120
#	176567
#	188885
#	205474
#	214698
#	229050
#
# Disc length: 3282 seconds
#
# Revision: 0
# Processed by: cddbd v1.5PL3 Copyright (c) Steve Scherf et al.
# Submitted via: CDex 1.51
#
DISCID=c60cd010
DTITLE=Sojiro - Heart Obtained  Vol 08
DYEAR=1991
DGENRE=New Age
TTITLE0=H
TTITLE1=Lorelei
TTITLE2=Joy of Love
TTITLE3=On Wings of Song
TTITLE4=(Japanese Title)
TTITLE5=Energy of Sleep
TTITLE6=Schubert's Lullaby
TTITLE7=Mozart's lullaby
TTITLE8=House Way
TTITLE9=Field Rose
TTITLE10=Brahms's Lullaby
TTITLE11=AVE Mary (Queneau)
TTITLE12=AVE Mary (Schubert)
TTITLE13=Stellar Boundary
TTITLE14=Firewood People Sheep
TTITLE15=Night (Coming and giving up this night)
EXTD=YEAR: 1991
EXTT0=
EXTT1=
EXTT2=
EXTT3=
EXTT4=
EXTT5=
EXTT6=
EXTT7=
EXTT8=
EXTT9=
EXTT10=
EXTT11=
EXTT12=
EXTT13=
EXTT14=
EXTT15=
PLAYORDER=
